Coordinates
version=1
nRows=13
nColumns=38
inDegrees=no

Units are S.I. units (second, meters, Newtons, ...)
If the header above contains a line with 'inDegrees', this indicates whether rotational values are in degrees (yes) or radians (no).

endheader
time	pelvis_tilt	pelvis_list	pelvis_rotation	pelvis_tx	pelvis_ty	pelvis_tz	hip_flexion_r	hip_adduction_r	hip_rotation_r	knee_angle_r	ankle_angle_r	subtalar_angle_r	mtp_angle_r	hip_flexion_l	hip_adduction_l	hip_rotation_l	knee_angle_l	ankle_angle_l	subtalar_angle_l	mtp_angle_l	lumbar_extension	lumbar_bending	lumbar_rotation	arm_flex_r	arm_add_r	arm_rot_r	elbow_flex_r	pro_sup_r	wrist_flex_r	wrist_dev_r	arm_flex_l	arm_add_l	arm_rot_l	elbow_flex_l	pro_sup_l	wrist_flex_l	wrist_dev_l
0.52	-1.53526	1.53941	2.95909	0.720261	0.207586	0.924558	-0.112645	-0.116423	-0.0678177	0.707188	0.164458	0	0	0.531089	0.0115975	-0.319921	0.494734	0.133451	0	0	-0.127871	-0.102749	0.0170854	-0.179299	-0.0710462	-0.160603	0.336267	1.3113	0	0	-0.344164	-0.43605	0.574119	0.792411	0.630071	0	0
0.53	-1.54281	1.53234	2.98056	0.718676	0.221387	0.925217	-0.0816044	-0.125898	-0.0669715	0.777689	0.106157	0	0	0.533674	0.0249247	-0.305264	0.523897	0.134668	0	0	-0.12546	-0.111781	0.000746576	-0.178927	-0.0692158	-0.159323	0.333086	1.31908	0	0	-0.350185	-0.445377	0.589611	0.794271	0.60694	0	0
0.54	-1.59093	1.52559	3.04059	0.717287	0.23504	0.926006	-0.0500468	-0.134433	-0.0619209	0.848228	0.0437714	0	0	0.528844	0.0373197	-0.296654	0.543498	0.131282	0	0	-0.125175	-0.120441	-0.0120353	-0.178566	-0.0686354	-0.155557	0.328825	1.32277	0	0	-0.354155	-0.456201	0.60781	0.798255	0.585606	0	0
0.55	-1.62155	1.5176	3.08049	0.715991	0.248374	0.926741	-0.0149225	-0.143842	-0.0535006	0.918964	-0.0206979	0	0	0.519048	0.0495959	-0.295494	0.553638	0.127202	0	0	-0.124507	-0.130212	-0.021493	-0.178406	-0.0691639	-0.150114	0.325062	1.32358	0	0	-0.357683	-0.46678	0.622188	0.803562	0.57375	0	0
0.56	-1.63397	1.50909	3.10041	0.714697	0.261316	0.927507	0.0222982	-0.15305	-0.0427593	0.986703	-0.0853957	0	0	0.505633	0.0615499	-0.299931	0.556301	0.126077	0	0	-0.123304	-0.14037	-0.0286329	-0.179246	-0.0702411	-0.146381	0.32453	1.32398	0	0	-0.36019	-0.476134	0.632286	0.807871	0.568745	0	0
0.57	-1.62782	1.50006	3.10017	0.713449	0.27389	0.928312	0.0610485	-0.162325	-0.0304705	1.0495	-0.154418	0	0	0.490676	0.0738484	-0.306489	0.55377	0.127867	0	0	-0.120794	-0.151238	-0.0338853	-0.181642	-0.0716082	-0.14372	0.328356	1.32512	0	0	-0.362035	-0.485215	0.64061	0.812032	0.567367	0	0
0.58	-1.62574	1.49127	3.10249	0.712311	0.286162	0.929294	0.0988195	-0.170248	-0.0163594	1.10557	-0.223576	0	0	0.474337	0.086128	-0.312188	0.548608	0.131578	0	0	-0.118563	-0.16204	-0.0372448	-0.185245	-0.0731827	-0.142145	0.33659	1.32657	0	0	-0.362881	-0.493566	0.64664	0.815393	0.568991	0	0
0.59	-1.63281	1.48334	3.11247	0.711301	0.29822	0.930507	0.134144	-0.175251	0.000245699	1.15484	-0.280188	0	0	0.457406	0.0979891	-0.315284	0.543655	0.137476	0	0	-0.117537	-0.171923	-0.0383746	-0.190066	-0.0749267	-0.142121	0.349188	1.32744	0	0	-0.362207	-0.500928	0.651001	0.817428	0.573617	0	0
0.6	-1.64716	1.47636	3.12828	0.710447	0.310034	0.93201	0.16788	-0.176985	0.0193368	1.20072	-0.306246	0	0	0.439843	0.109712	-0.314163	0.538715	0.144781	0	0	-0.117531	-0.180731	-0.0382003	-0.194772	-0.0769546	-0.141057	0.363981	1.32675	0	0	-0.360978	-0.506476	0.651131	0.817638	0.581943	0	0
0.61	-1.66854	1.47105	-3.1319	0.709699	0.321651	0.933836	0.199976	-0.175438	0.0377924	1.24329	-0.300068	0	0	0.421107	0.120804	-0.308573	0.533257	0.152378	0	0	-0.118711	-0.187693	-0.0390791	-0.197369	-0.0794953	-0.13555	0.376258	1.32254	0	0	-0.36079	-0.50921	0.642281	0.816272	0.596096	0	0
0.62	-1.70263	1.46743	-3.09538	0.709023	0.333146	0.936089	0.228546	-0.17117	0.0538428	1.27891	-0.275276	0	0	0.399115	0.130871	-0.300546	0.524873	0.159528	0	0	-0.121655	-0.192578	-0.0418316	-0.196168	-0.0818846	-0.129117	0.381912	1.31876	0	0	-0.360481	-0.510554	0.631478	0.813643	0.605759	0	0
0.63	-1.7478	1.46599	-3.04727	0.708379	0.344489	0.938704	0.253746	-0.163314	0.0683618	1.30628	-0.245434	0	0	0.373789	0.138541	-0.292253	0.512928	0.166055	0	0	-0.126522	-0.194517	-0.045063	-0.192784	-0.083915	-0.125846	0.384278	1.31737	0	0	-0.358874	-0.510202	0.619299	0.809357	0.611689	0	0
0.64	-1.79275	1.46601	-2.99859	0.707705	0.355675	0.941396	0.277303	-0.154562	0.0796118	1.32584	-0.219183	0	0	0.346998	0.144218	-0.284789	0.497913	0.171603	0	0	-0.131195	-0.194297	-0.0488291	-0.188103	-0.0855311	-0.124854	0.38436	1.31746	0	0	-0.356402	-0.509076	0.607112	0.804823	0.613862	0	0
